<svg width="84" height="86" viewBox="0 0 84 86" fill="none" xmlns="http://www.w3.org/2000/svg">
<path d="M44 6L52.9806 33.6393H82.0423L58.5309 50.7214L67.5114 78.3607L44 61.2786L20.4886 78.3607L29.4691 50.7214L5.95774 33.6393H35.0194L44 6Z" fill="url(#paint0_linear_33_197)"/>
<path d="M44.7898 56.2386C43.5852 56.2386 42.5114 56.017 41.5682 55.5739C40.6307 55.1307 39.8864 54.5199 39.3352 53.7415C38.7841 52.9631 38.4972 52.071 38.4744 51.0653H42.054C42.0938 51.7415 42.3778 52.2898 42.9062 52.7102C43.4347 53.1307 44.0625 53.3409 44.7898 53.3409C45.3693 53.3409 45.8807 53.2131 46.3239 52.9574C46.7727 52.696 47.1222 52.3352 47.3722 51.875C47.6278 51.4091 47.7557 50.875 47.7557 50.2727C47.7557 49.6591 47.625 49.1193 47.3636 48.6534C47.108 48.1875 46.7528 47.8239 46.2983 47.5625C45.8438 47.3011 45.3239 47.1676 44.7386 47.1619C44.2273 47.1619 43.7301 47.267 43.2472 47.4773C42.7699 47.6875 42.3977 47.9744 42.1307 48.3381L38.8494 47.75L39.6761 38.5455H50.3466V41.5625H42.7188L42.267 45.9347H42.3693C42.6761 45.5028 43.1392 45.1449 43.7585 44.8608C44.3778 44.5767 45.071 44.4347 45.8381 44.4347C46.8892 44.4347 47.8267 44.6818 48.6506 45.1761C49.4744 45.6705 50.125 46.3494 50.6023 47.2131C51.0795 48.071 51.3153 49.0597 51.3097 50.179C51.3153 51.3551 51.0426 52.4006 50.4915 53.3153C49.946 54.2244 49.1818 54.9403 48.1989 55.4631C47.2216 55.9801 46.0852 56.2386 44.7898 56.2386Z" fill="url(#paint1_linear_33_197)"/>
<path d="M45.1752 0L37.5195 35.7096C37.4207 36.1706 37.0133 36.5 36.5418 36.5H12.7477C11.7502 36.5 11.3675 37.8002 12.206 38.3406L34.1742 52.4988C34.5665 52.7516 34.7318 53.2422 34.5724 53.6809L29.6877 67.1227C29.3417 68.0747 30.4678 68.8786 31.2559 68.2422L44.5111 57.5364C44.8936 57.2274 45.444 57.2424 45.8091 57.5718L64.4599 74.3933C65.2278 75.0859 66.4134 74.2999 66.0744 73.323L59 52.931L71.6348 82.5098C72.0363 83.4497 70.9356 84.3155 70.1167 83.7039L45.7736 65.5219C45.4187 65.2569 44.9317 65.2569 44.5768 65.5219L19.8366 84.0004C19.0497 84.5882 17.9755 83.8077 18.2913 82.8777L28.2202 53.6382C28.3626 53.2188 28.2121 52.7556 27.8504 52.5L2.6312 34.6808C1.82901 34.114 2.23931 32.8512 3.22145 32.8642L34.098 33.2717C34.541 33.2775 34.935 32.9913 35.0663 32.5682L45.1752 0Z" fill="url(#paint2_linear_33_197)"/>
<defs>
<linearGradient id="paint0_linear_33_197" x1="44" y1="6" x2="44" y2="86" gradientUnits="userSpaceOnUse">
<stop offset="0.629" stop-color="#0EBAE6"/>
<stop offset="0.859" stop-color="#2E2F8F"/>
</linearGradient>
<linearGradient id="paint1_linear_33_197" x1="46.5" y1="33" x2="46.5" y2="65" gradientUnits="userSpaceOnUse">
<stop offset="0.629" stop-color="#0EBAE6"/>
<stop offset="0.859" stop-color="#2E2F8F"/>
</linearGradient>
<linearGradient id="paint2_linear_33_197" x1="36.5475" y1="0" x2="36.5475" y2="85.9283" gradientUnits="userSpaceOnUse">
<stop offset="0.629" stop-color="#0EBAE6"/>
<stop offset="0.859" stop-color="#2E2F8F"/>
</linearGradient>
</defs>
</svg>
