<svg width="84" height="86" viewBox="0 0 84 86" fill="none" xmlns="http://www.w3.org/2000/svg">
<path d="M44 6L52.9806 33.6393H82.0423L58.5309 50.7214L67.5114 78.3607L44 61.2786L20.4886 78.3607L29.4691 50.7214L5.95774 33.6393H35.0194L44 6Z" fill="#1E1E1E"/>
<path d="M45.1752 0L37.5195 35.7096C37.4207 36.1706 37.0133 36.5 36.5418 36.5H12.7477C11.7502 36.5 11.3675 37.8002 12.206 38.3406L34.1742 52.4988C34.5665 52.7516 34.7318 53.2422 34.5724 53.6809L29.6877 67.1227C29.3417 68.0747 30.4678 68.8786 31.2559 68.2422L44.5111 57.5364C44.8936 57.2274 45.444 57.2424 45.8091 57.5718L64.4599 74.3933C65.2278 75.0859 66.4134 74.2999 66.0744 73.323L59 52.931L71.6348 82.5098C72.0363 83.4497 70.9356 84.3155 70.1168 83.7039L45.7736 65.5219C45.4187 65.2569 44.9317 65.2569 44.5768 65.5219L19.8366 84.0004C19.0497 84.5882 17.9755 83.8077 18.2913 82.8777L28.2202 53.6382C28.3626 53.2188 28.2121 52.7556 27.8504 52.5L2.6312 34.6808C1.82901 34.114 2.23931 32.8512 3.22145 32.8642L34.098 33.2717C34.541 33.2775 34.935 32.9913 35.0663 32.5682L45.1752 0Z" fill="url(#paint0_linear_33_141)"/>
<defs>
<linearGradient id="paint0_linear_33_141" x1="36.5475" y1="0" x2="36.5475" y2="85.9283" gradientUnits="userSpaceOnUse">
<stop offset="0.629" stop-color="#0EBAE6"/>
<stop offset="0.859" stop-color="#2E2F8F"/>
</linearGradient>
</defs>
</svg>
